<?xml version="1.0" encoding="UTF-8" standalone="no"?>
<svg
   xmlns:svg="http://www.w3.org/2000/svg"
   xmlns="http://www.w3.org/2000/svg"
   xmlns:sodipodi="http://sodipodi.sourceforge.net/DTD/sodipodi-0.dtd"
   xmlns:inkscape="http://www.inkscape.org/namespaces/inkscape"
   width="16"
   height="16"
   viewBox="-1152 -1280 1510 1510"
   id="svg3032"
   version="1.1"
   inkscape:version="0.48.4 r9939"
   sodipodi:docname="compress.svg">
  <defs
     id="defs3040" />
  <sodipodi:namedview
     pagecolor="#ffffff"
     bordercolor="#666666"
     borderopacity="1"
     objecttolerance="10"
     gridtolerance="10"
     guidetolerance="10"
     inkscape:pageopacity="0"
     inkscape:pageshadow="2"
     inkscape:window-width="640"
     inkscape:window-height="480"
     id="namedview3038"
     showgrid="false"
     inkscape:zoom="15.998241"
     inkscape:cx="12.495392"
     inkscape:cy="7.2853654"
     inkscape:window-x="836"
     inkscape:window-y="107"
     inkscape:window-maximized="0"
     inkscape:current-layer="svg3032"
     fit-margin-top="0"
     fit-margin-left="0"
     fit-margin-right="0"
     fit-margin-bottom="0" />
  <g
     transform="matrix(1,0,0,-1,-1165,115)"
     id="g3034">
    <path
       d="M 768,576 V 128 Q 768,102 749,83 730,64 704,64 678,64 659,83 L 515,227 183,-105 q -10,-10 -23,-10 -13,0 -23,10 L 23,9 Q 13,19 13,32 13,45 23,55 L 355,387 211,531 q -19,19 -19,45 0,26 19,45 19,19 45,19 h 448 q 26,0 45,-19 19,-19 19,-45 z m 755,672 q 0,-13 -10,-23 L 1181,893 1325,749 q 19,-19 19,-45 0,-26 -19,-45 -19,-19 -45,-19 H 832 q -26,0 -45,19 -19,19 -19,45 v 448 q 0,26 19,45 19,19 45,19 26,0 45,-19 l 144,-144 332,332 q 10,10 23,10 13,0 23,-10 l 114,-114 q 10,-10 10,-23 z"
       id="path3036"
       inkscape:connector-curvature="0"
       style="fill:#000000" />
  </g>
</svg>
